<?xml version="1.0" encoding="UTF-8" standalone="no"?>
<!DOCTYPE svg PUBLIC "-//W3C//DTD SVG 1.1//EN" "http://www.w3.org/Graphics/SVG/1.1/DTD/svg11.dtd">
<svg width="100%" height="100%" viewBox="0 0 266 266" version="1.1" xmlns="http://www.w3.org/2000/svg" xmlns:xlink="http://www.w3.org/1999/xlink" xml:space="preserve" xmlns:serif="http://www.serif.com/" style="fill-rule:evenodd;clip-rule:evenodd;stroke-linejoin:round;stroke-miterlimit:2;">
    <g id="Layer-1" serif:id="Layer 1">
        <g transform="matrix(-0.807548,-0.589802,-0.589802,0.807548,137.144,167.879)">
            <path d="M-14.785,-19.173C-10.581,-18.032 -0.177,-15.85 10.735,-18.44L-14.785,16.501L-31.776,4.091L-14.785,-19.173Z" style="fill-rule:nonzero;"/>
        </g>
        <g transform="matrix(1,0,0,1,23.7589,99.8619)">
            <path d="M0,67.588C0.095,67.643 0.189,67.7 0.279,67.764L39.763,95.912L40.101,96.579L43.198,112.033L42.992,112.192L37.315,116.549L37.09,116.722L36.267,115.647L31.049,108.833C20.869,95.571 10.688,82.31 0.508,69.049L0.208,68.66L-1.31,66.695L-0.522,67.232L0,67.588ZM112.076,-87.715C53.872,-87.715 5.103,-46.576 -6.701,8.15C-7.552,12.092 -8.205,16.106 -8.662,20.178C-8.874,26.138 -7.4,38.078 4.262,53.28C6.326,55.631 8.311,57.848 10.216,59.926C38.139,90.389 49.939,92.932 63.628,92.932C88.495,92.932 110.492,82.252 110.492,57.385C110.492,30.765 88.813,24.708 65.541,21.839C52.151,20.245 40.674,17.535 40.674,7.811C40.674,-0.478 48.166,-7.013 63.787,-7.013C74.837,-7.013 84.568,-1.961 114.993,40.255C115.194,40.568 126.279,57.737 139.929,57.226L168.195,57.226C222.87,57.226 222.71,-21.678 168.195,-21.678C150.661,-21.678 133.126,-21.519 115.592,-21.519L115.592,2.794L136.633,31.268L136.633,-1.594L168.195,-1.594C194.974,-1.594 195.133,37.939 168.195,37.939L144.052,37.939C143.259,37.87 142.511,37.772 141.817,37.645C137.142,36.45 133.872,33.508 131.921,31.184C131.179,30.108 130.444,29.052 129.718,28.016L129.716,28.011L129.715,28.012C124.631,20.761 119.941,14.484 115.592,9.061C90.378,-22.387 76.572,-25.344 63.15,-25.344C42.587,-25.185 19.951,-15.78 19.951,7.173C19.951,32.2 40.993,38.257 63.787,40.967C78.612,42.561 89.611,46.865 89.611,57.385C89.611,69.5 77.177,74.123 63.947,74.123C54.9,74.123 46.127,71.691 13.864,33.409C12.923,32.068 12.161,30.722 11.52,29.386C8.493,22.532 8.671,15.737 9.407,11.12C9.702,9.783 10.014,8.452 10.359,7.135C22.191,-37.975 63.306,-71.353 112.076,-71.353C170.054,-71.353 217.223,-24.184 217.223,33.794C217.223,84.654 180.925,127.192 132.875,136.872L132.881,136.873C101.068,145.178 75.445,140.002 55.208,128.879C56.14,128.163 57.073,127.447 57.999,126.736C57.186,125.238 56.062,123.898 55.751,122.391C55.421,120.79 55.863,119.03 55.968,117.339C55.973,117.256 55.982,117.174 55.987,117.092C56.068,115.713 56.15,114.332 56.235,112.908L56.642,108.574L52.613,111.667L49.09,114.371L44.845,94.019L35.257,86.993L35.259,86.997C21.67,76.817 8.068,66.657 -5.534,56.496C-5.986,56.158 -6.438,55.82 -6.89,55.482C-7.112,55.316 -7.34,55.151 -7.562,54.986C-9.14,53.814 -10.738,52.649 -12.453,51.389C-12.376,51.71 -12.366,51.793 -12.337,51.868C-5.313,69.926 1.709,87.985 8.756,106.034C8.887,106.368 9.017,106.702 9.147,107.035L13.071,117.032C13.238,117.333 13.497,117.623 13.788,117.858L27.398,123.76C27.403,123.762 27.407,123.764 27.412,123.766C29.059,124.459 30.706,125.152 32.353,125.846C32.676,125.983 33.002,126.135 33.412,126.324C33.428,126.338 33.445,126.353 33.462,126.367L24.993,132.868C25.501,132.995 25.893,133.097 26.249,133.185C26.27,133.191 26.291,133.196 26.312,133.201C26.469,133.24 26.621,133.277 26.773,133.312C30.556,134.19 34.349,135.031 38.117,135.97C38.773,136.134 39.413,136.622 39.906,137.114C40.557,137.763 41.057,138.564 41.626,139.305C43.152,138.133 44.662,136.974 46.162,135.822C65.159,148.141 87.795,155.303 112.076,155.303C179.076,155.303 233.585,100.795 233.585,33.794C233.585,-33.206 179.076,-87.715 112.076,-87.715" style="fill:rgb(140,21,21);fill-rule:nonzero;"/>
        </g>
    </g>
</svg>
